<svg height="494" width="720" xmlns="http://www.w3.org/2000/svg">
<rect height="494" fill="#555" width="720"></rect>
<text fill="#7f7" font-family="Courier New" font-size="12" xml:space="preserve">
<tspan x="10" y="26">4 megabytes installed</tspan>
<tspan x="10" y="42"></tspan>
<tspan x="10" y="58">node_modules</tspan>
<tspan x="10" y="74">└─┬ publish-latest@1.1.2 </tspan>
<tspan x="10" y="90">  ├─┬ commander@2.9.0 </tspan>
<tspan x="10" y="106">  │ └── graceful-readlink@1.0.1 </tspan>
<tspan x="10" y="122">  ├─┬ parse-author@0.2.0 </tspan>
<tspan x="10" y="138">  │ └── author-regex@0.2.1 </tspan>
<tspan x="10" y="154">  ├── path-here@1.1.1 </tspan>
<tspan x="10" y="170">  └─┬ repo-path-parse@1.0.1 </tspan>
<tspan x="10" y="186">    ├─┬ dox@0.6.1 </tspan>
<tspan x="10" y="202">    │ ├── commander@0.6.1 </tspan>
<tspan x="10" y="218">    │ ├─┬ jsdoctypeparser@1.2.0 </tspan>
<tspan x="10" y="234">    │ │ └── lodash@3.10.1 </tspan>
<tspan x="10" y="250">    │ └── marked@0.3.6 </tspan>
<tspan x="10" y="266">    └─┬ doxme@1.8.2 </tspan>
<tspan x="10" y="282">      ├─┬ concat-stream@1.6.0 </tspan>
<tspan x="10" y="298">      │ ├── inherits@2.0.3 </tspan>
<tspan x="10" y="314">      │ ├─┬ readable-stream@2.2.9 </tspan>
<tspan x="10" y="330">      │ │ ├── buffer-shims@1.0.0 </tspan>
<tspan x="10" y="346">      │ │ ├── core-util-is@1.0.2 </tspan>
<tspan x="10" y="362">      │ │ ├── isarray@1.0.0 </tspan>
<tspan x="10" y="378">      │ │ ├── process-nextick-args@1.0.7 </tspan>
<tspan x="10" y="394">      │ │ ├── string_decoder@1.0.0 </tspan>
<tspan x="10" y="410">      │ │ └── util-deprecate@1.0.2 </tspan>
<tspan x="10" y="426">      │ └── typedarray@0.0.6 </tspan>
<tspan x="10" y="442">      ├── markdown-table@0.3.2 </tspan>
<tspan x="10" y="458">      ├── minimist@1.2.0 </tspan>
<tspan x="10" y="474">      └── striptags@2.2.1</tspan>
</text>
</svg>
